<?xml version="1.0" encoding="utf-8"?>
<!-- Generator: Adobe Illustrator 19.0.1, SVG Export Plug-In . SVG Version: 6.00 Build 0)  -->
<svg version="1.1" id="Слой_1" xmlns="http://www.w3.org/2000/svg" xmlns:xlink="http://www.w3.org/1999/xlink" x="0px" y="0px"
	 viewBox="0 0 16 16" style="enable-background:new 0 0 16 16;" xml:space="preserve">
<style type="text/css">
	.st0{fill:#0E7C7B;}
</style>
<path class="st0" d="M8,1.5c-1.7,0-3.4,0.7-4.6,1.9c-2.6,2.6-2.6,6.7,0,9.3c1.2,1.2,2.9,1.9,4.6,1.9c3.6,0,6.5-2.9,6.5-6.5
	C14.5,4.4,11.6,1.5,8,1.5L8,1.5z M0,8c0-4.4,3.6-8,8-8c4.4,0,8,3.6,8,8c0,4.4-3.6,8-8,8C3.6,16,0,12.4,0,8z"/>
<path class="st0" d="M8,2.9c0.4,0,0.7,0.3,0.7,0.7l0,0v3.6h3.6c0.4,0,0.7,0.3,0.7,0.7c0,0.4-0.3,0.7-0.7,0.7H8
	C7.6,8.7,7.3,8.4,7.3,8V3.6C7.3,3.2,7.6,2.9,8,2.9L8,2.9L8,2.9z"/>
</svg>
