<?xml version="1.0" encoding="utf-8"?>
<!-- Generator: Adobe Illustrator 19.0.1, SVG Export Plug-In . SVG Version: 6.00 Build 0)  -->
<svg version="1.1" id="Слой_1" xmlns="http://www.w3.org/2000/svg" xmlns:xlink="http://www.w3.org/1999/xlink" x="0px" y="0px"
	 viewBox="0 0 62.9 72" style="enable-background:new 0 0 62.9 72;" xml:space="preserve">
<style type="text/css">
	.st0{opacity:0.67;fill:#FFFFFF;}
	.st1{fill:url(#SVGID_1_);}
	.st2{fill:#FFFFFF;}
</style>
<path class="st0" d="M8.8,0.8l51.2,30c3.9,2.3,3.9,8,0,10.3l-51.2,30C4.9,73.5,0,70.6,0,66L0,6C0,1.4,4.9-1.5,8.8,0.8z"/>
<linearGradient id="SVGID_1_" gradientUnits="userSpaceOnUse" x1="52.7144" y1="87.3263" x2="14.2502" y2="50.1819" gradientTransform="matrix(1.346898e-010 -1 1 1.346898e-010 -50.9713 69.8706)">
	<stop  offset="0" style="stop-color:#00A4AC"/>
	<stop  offset="1" style="stop-color:#00FDE8"/>
</linearGradient>
<path class="st1" d="M11.8,8.7L51.5,32c3,1.8,3,6.2,0,8L11.8,63.2c-3,1.8-6.8-0.4-6.8-4V12.7C5,9.2,8.8,6.9,11.8,8.7z"/>
<path class="st2" d="M23.2,28.9c0-1.3,0.1-1.9,2.1-1.9h2.6v-4.7h-4.1c-5,0-6.7,2.3-6.7,6.3v3h-3.1v4.7H17v14h6.2v-14h4.1l0.5-4.7
	h-4.7L23.2,28.9z"/>
</svg>
