<?xml version="1.0" encoding="utf-8"?>
<!-- Generator: Adobe Illustrator 19.0.1, SVG Export Plug-In . SVG Version: 6.00 Build 0)  -->
<svg version="1.1" id="Слой_1" xmlns="http://www.w3.org/2000/svg" xmlns:xlink="http://www.w3.org/1999/xlink" x="0px" y="0px"
	 viewBox="0 0 62.9 72" style="enable-background:new 0 0 62.9 72;" xml:space="preserve">
<style type="text/css">
	.st0{opacity:0.67;fill:#FFFFFF;}
	.st1{fill:url(#SVGID_1_);}
	.st2{fill-rule:evenodd;clip-rule:evenodd;fill:#FFFFFF;}
</style>
<path class="st0" d="M54.1,71.2l-51.2-30c-3.9-2.3-3.9-8,0-10.3l51.2-30C58-1.5,62.9,1.4,62.9,6v60C62.9,70.6,58,73.5,54.1,71.2z"/>
<linearGradient id="SVGID_1_" gradientUnits="userSpaceOnUse" x1="52.7144" y1="87.3263" x2="14.2502" y2="50.1819" gradientTransform="matrix(-1.346898e-010 1 -1 -1.346898e-010 113.8717 2.0963)">
	<stop  offset="0" style="stop-color:#00A4AC"/>
	<stop  offset="1" style="stop-color:#00FDE8"/>
</linearGradient>
<path class="st1" d="M51.1,63.2L11.4,40c-3-1.8-3-6.2,0-8L51.1,8.7c3-1.8,6.8,0.4,6.8,4v46.5C57.9,62.8,54.1,65,51.1,63.2z"/>
<path class="st2" d="M40.3,22.7c-5.5,0-10,4.4-10,9.9c0,5.5,10,17.1,10,17.1s10-11.6,10-17.1C50.3,27.2,45.8,22.7,40.3,22.7z
	 M40.3,38c-3,0-5.5-2.4-5.5-5.4c0-3,2.4-5.4,5.5-5.4c3,0,5.5,2.4,5.5,5.4C45.7,35.6,43.3,38,40.3,38z"/>
</svg>
