<?xml version="1.0" encoding="utf-8"?>
<!-- Generator: Adobe Illustrator 19.0.1, SVG Export Plug-In . SVG Version: 6.00 Build 0)  -->
<svg version="1.1" id="Слой_1" xmlns="http://www.w3.org/2000/svg" xmlns:xlink="http://www.w3.org/1999/xlink" x="0px" y="0px"
	 viewBox="0 0 17 14" style="enable-background:new 0 0 17 14;" xml:space="preserve">
<style type="text/css">
	.st0{fill:#0E7C7B;}
</style>
<path class="st0" d="M17,7c0-0.2-0.1-0.5-0.3-0.6l-3.2-3.3c-0.3-0.3-0.9-0.3-1.2,0c-0.3,0.4-0.3,0.9,0,1.2L14,6.1H5.4
	C4.9,6.1,4.6,6.5,4.6,7c0,0.5,0.4,0.9,0.9,0.9h8.6l-1.7,1.8c-0.3,0.4-0.3,0.9,0,1.2c0.2,0.2,0.4,0.3,0.6,0.3c0.2,0,0.4-0.1,0.6-0.3
	l3.2-3.2C16.9,7.5,17,7.2,17,7z"/>
<path class="st0" d="M3.2,1.7h5.5c0.5,0,0.9-0.4,0.9-0.9C9.5,0.4,9.2,0,8.7,0H3.2C1.5,0,0,1.5,0,3.2v7.5C0,12.5,1.5,14,3.2,14h5.5
	c0.5,0,0.9-0.4,0.9-0.9c0-0.5-0.4-0.9-0.9-0.9H3.2c-0.8,0-1.5-0.7-1.5-1.5V3.2C1.7,2.4,2.4,1.7,3.2,1.7z"/>
</svg>
