<?xml version="1.0" encoding="utf-8"?>
<!-- Generator: Adobe Illustrator 19.0.1, SVG Export Plug-In . SVG Version: 6.00 Build 0)  -->
<svg version="1.1" id="Слой_1" xmlns="http://www.w3.org/2000/svg" xmlns:xlink="http://www.w3.org/1999/xlink" x="0px" y="0px"
	 viewBox="0 0 29.7 30" style="enable-background:new 0 0 29.7 30;" xml:space="preserve">
<style type="text/css">
	.st0{fill-rule:evenodd;clip-rule:evenodd;fill:#00FDE8;}
	.st1{fill:#00A4AC;}
</style>
<path class="st0" d="M14.9,0c8.2,0,14.9,6.7,14.9,15c0,8.3-6.7,15-14.9,15S0,23.3,0,15C0,6.7,6.7,0,14.9,0z"/>
<path class="st1" d="M25,21c0,0.1,0,0.1,0,0.2L18.8,15L25,8.8c0,0.1,0,0.1,0,0.2V21z M24,22H6c-0.1,0-0.2,0-0.3-0.1l6.2-6.2l1.7,1.7
	C14,17.8,14.5,18,15,18c0.5,0,1-0.2,1.4-0.6l1.7-1.7l6.2,6.2C24.2,22,24.1,22,24,22z M5,21V9c0-0.1,0-0.1,0-0.2l6.2,6.2L5,21.2
	C5,21.1,5,21,5,21z M6,8h18c0.1,0,0.2,0,0.3,0.1l-8.7,8.7C15.5,16.9,15.3,17,15,17c-0.3,0-0.5-0.1-0.7-0.3L5.7,8C5.8,8,5.9,8,6,8z"
	/>
</svg>
