<?xml version="1.0" encoding="utf-8"?>
<!-- Generator: Adobe Illustrator 19.0.1, SVG Export Plug-In . SVG Version: 6.00 Build 0)  -->
<svg version="1.1" id="Слой_1" xmlns="http://www.w3.org/2000/svg" xmlns:xlink="http://www.w3.org/1999/xlink" x="0px" y="0px"
	 viewBox="0 0 20 14" style="enable-background:new 0 0 20 14;" xml:space="preserve">
<style type="text/css">
	.st0{fill:#00FDE8;}
</style>
<path class="st0" d="M20,13c0,0.1,0,0.1,0,0.2L13.8,7L20,0.8c0,0.1,0,0.1,0,0.2V13z M19,14H1c-0.1,0-0.2,0-0.3-0.1l6.2-6.2l1.7,1.7
	C9,9.8,9.5,10,10,10c0.5,0,1-0.2,1.4-0.6l1.7-1.7l6.2,6.2C19.2,14,19.1,14,19,14z M0,13V1c0-0.1,0-0.1,0-0.2L6.2,7L0,13.2
	C0,13.1,0,13.1,0,13z M1,0h18c0.1,0,0.2,0,0.3,0.1l-8.7,8.7C10.5,8.9,10.3,9,10,9C9.7,9,9.5,8.9,9.3,8.7L0.7,0.1C0.8,0,0.9,0,1,0z"
	/>
</svg>
