<?xml version="1.0" encoding="utf-8"?>
<!-- Generator: Adobe Illustrator 19.0.1, SVG Export Plug-In . SVG Version: 6.00 Build 0)  -->
<svg version="1.1" id="Слой_1" xmlns="http://www.w3.org/2000/svg" xmlns:xlink="http://www.w3.org/1999/xlink" x="0px" y="0px"
	 viewBox="0 0 62.9 72" style="enable-background:new 0 0 62.9 72;" xml:space="preserve">
<style type="text/css">
	.st0{opacity:0.67;fill:#FFFFFF;}
	.st1{fill:url(#SVGID_1_);}
	.st2{fill:#FFFFFF;}
</style>
<path class="st0" d="M8.8,0.8l51.2,30c3.9,2.3,3.9,8,0,10.3l-51.2,30C4.9,73.5,0,70.6,0,66L0,6C0,1.4,4.9-1.5,8.8,0.8z"/>
<linearGradient id="SVGID_1_" gradientUnits="userSpaceOnUse" x1="52.7144" y1="87.3263" x2="14.2502" y2="50.1819" gradientTransform="matrix(1.346898e-010 -1 1 1.346898e-010 -50.9713 69.8706)">
	<stop  offset="0" style="stop-color:#00A4AC"/>
	<stop  offset="1" style="stop-color:#00FDE8"/>
</linearGradient>
<path class="st1" d="M11.8,8.7L51.5,32c3,1.8,3,6.2,0,8L11.8,63.2c-3,1.8-6.8-0.4-6.8-4V12.7C5,9.2,8.8,6.9,11.8,8.7z"/>
<path class="st2" d="M36,43.1c0,0.1,0,0.1,0,0.2l-7.4-7.5l7.4-7.5c0,0.1,0,0.1,0,0.2V43.1z M34.8,44.3H13.2c-0.1,0-0.3,0-0.4-0.1
	l7.5-7.6l2.1,2.1c0.5,0.5,1.1,0.7,1.7,0.7c0.6,0,1.2-0.2,1.7-0.7l2.1-2.1l7.5,7.6C35.1,44.3,34.9,44.3,34.8,44.3z M12,43.1V28.5
	c0-0.1,0-0.1,0-0.2l7.4,7.5L12,43.3C12,43.2,12,43.2,12,43.1z M13.2,27.3h21.6c0.1,0,0.3,0,0.4,0.1L24.8,37.9
	c-0.2,0.2-0.5,0.3-0.8,0.3c-0.3,0-0.6-0.1-0.8-0.3L12.8,27.4C12.9,27.3,13.1,27.3,13.2,27.3z"/>
</svg>
