<?xml version="1.0" encoding="utf-8"?>
<!-- Generator: Adobe Illustrator 19.0.1, SVG Export Plug-In . SVG Version: 6.00 Build 0)  -->
<svg version="1.1" id="Слой_1" xmlns="http://www.w3.org/2000/svg" xmlns:xlink="http://www.w3.org/1999/xlink" x="0px" y="0px"
	 viewBox="0 0 72 63" style="enable-background:new 0 0 72 63;" xml:space="preserve">
<style type="text/css">
	.st0{opacity:0.67;fill:#FFFFFF;}
	.st1{fill:url(#SVGID_1_);}
	.st2{fill-rule:evenodd;clip-rule:evenodd;fill:#FFFFFF;}
	.st3{fill:#FFFFFF;}
</style>
<path class="st0" d="M71.2,8.8L41.2,60c-2.3,3.9-8,3.9-10.3,0L0.8,8.8C-1.5,4.9,1.4,0,6,0L66,0C70.6,0,73.5,4.9,71.2,8.8z"/>
<linearGradient id="SVGID_1_" gradientUnits="userSpaceOnUse" x1="3.2246" y1="49.5195" x2="42.0132" y2="12.0618" gradientTransform="matrix(4.489659e-011 1 -1 4.489659e-011 67.4879 -4.5131)">
	<stop  offset="0" style="stop-color:#00A4AC"/>
	<stop  offset="1" style="stop-color:#00FDE8"/>
</linearGradient>
<path class="st1" d="M63.6,12.1L40.3,51.9c-1.8,3-6.2,3-8,0L9,12.1c-1.8-3,0.4-6.8,4-6.8h46.5C63.1,5.3,65.3,9.1,63.6,12.1z"/>
<path class="st2" d="M41.3,23v2h-10v-2H41.3z"/>
<path class="st3" d="M50.3,16c0,0.1,0,0.2-0.1,0.3L36.9,39.1c-0.2,0.3-0.4,0.3-0.6,0.3c-0.1,0-0.4,0-0.6-0.3L22.4,16.3
	c-0.1-0.1-0.1-0.2-0.1-0.3c0-0.2,0.2-0.6,0.7-0.6h26.7C50.1,15.4,50.3,15.8,50.3,16 M52.3,16c0-1.4-1.1-2.6-2.7-2.6H22.9
	c-1.5,0-2.7,1.3-2.7,2.6c0,0.4,0.1,0.9,0.4,1.3L34,40.1c1,1.7,3.6,1.7,4.6,0l13.3-22.8C52.2,16.9,52.3,16.5,52.3,16L52.3,16z"/>
</svg>
