<?xml version="1.0" encoding="utf-8"?>
<!-- Generator: Adobe Illustrator 19.0.1, SVG Export Plug-In . SVG Version: 6.00 Build 0)  -->
<svg version="1.1" id="Слой_1" xmlns="http://www.w3.org/2000/svg" xmlns:xlink="http://www.w3.org/1999/xlink" x="0px" y="0px"
	 viewBox="0 0 75 75" style="enable-background:new 0 0 75 75;" xml:space="preserve">
<style type="text/css">
	.st0{fill-rule:evenodd;clip-rule:evenodd;fill:#FFFFFF;}
	.st1{fill:#0E7C7B;}
</style>
<path class="st0" d="M37.5,73C17.9,73,2,57.1,2,37.5S17.9,2,37.5,2S73,17.9,73,37.5S57.1,73,37.5,73z"/>
<path class="st1" d="M37.5,3C56.5,3,72,18.5,72,37.5C72,56.5,56.5,72,37.5,72C18.5,72,3,56.5,3,37.5C3,18.5,18.5,3,37.5,3 M37.5,1
	C17.3,1,1,17.3,1,37.5S17.3,74,37.5,74C57.7,74,74,57.7,74,37.5S57.7,1,37.5,1L37.5,1z"/>
<path class="st1" d="M36.4,56c-0.4,0-0.7-0.1-1-0.4c-0.3-0.3-0.4-0.6-0.4-1c0-0.4,0.1-0.7,0.4-1l0.1-0.1c0.5-0.5,1.4-0.5,1.9,0
	c0.3,0.3,0.4,0.6,0.4,1c0,0.4-0.1,0.7-0.4,1l-0.1,0.1C37.1,55.8,36.8,56,36.4,56z"/>
<path class="st1" d="M38.5,53c-0.3,0-0.5-0.1-0.8-0.2l-6.3-4.3c-0.4-0.3-0.6-0.7-0.6-1.1v-3c0-0.5,0.2-0.9,0.7-1.2
	c0.4-0.3,0.9-0.3,1.3-0.1c0.2,0.1,0.4,0.3,0.6,0.4c0.1,0.1,0.1,0.1,0.2,0.1c0.1,0,0.2,0.1,0.3,0.2c1,0.9,3.1,2.2,4.2,2.2
	c0.1,0,0.1,0,0.2,0c0.1,0,2.2,0.3,4.4-1.7c0.4-0.4,0.9-0.9,1.7-1.3c0.4-0.2,0.9-0.2,1.3,0.1c0.4,0.3,0.7,0.7,0.7,1.2v3.2
	c0,0.5-0.2,0.9-0.6,1.2l-6.5,4.3C39,53,38.8,53,38.5,53z M36,48.3l2.5,1.7l2.4-1.6c-1.4,0.4-2.6,0.4-2.9,0.4
	C37.4,48.7,36.7,48.6,36,48.3z"/>
<path class="st1" d="M36.6,55.8c-0.3,0-0.6-0.1-0.8-0.3c-0.4-0.3-0.6-0.7-0.6-1.1c0-0.3,0.1-0.6,0.3-0.8l2.1-2.8
	c0.5-0.6,1.3-0.7,1.9-0.3c0.4,0.3,0.6,0.7,0.6,1.1c0,0.3-0.1,0.6-0.3,0.8l-2.1,2.8C37.4,55.6,37,55.8,36.6,55.8z"/>
<path class="st1" d="M49.2,36.7c0,0-0.1,0-0.1,0c-0.7-0.1-1.3-0.7-1.3-1.4V28c-0.1-0.4-0.6-1.9-2.3-2.6l-4.1-1.5
	c-0.4-0.2-0.9-0.2-1.4,0c-0.8,0.3-2,0.7-2.7,0.9c-0.7,0.2-1.1,0.2-1.6,0.2h-3.9c-0.4,0.1-2.1,0.6-2.7,2.8v6.2c0,0.7-0.6,1.3-1.3,1.4
	c-0.7,0-1.4-0.5-1.4-1.2c-0.1-1-0.4-1.8-0.8-2.3c-0.8-1-1.3-2.3-1.3-3.8v-4.7c0-5.2,4.2-9.4,9.4-9.4h12.1c0.1,0,0.2,0,0.2,0
	c1.8,0.3,2.7,1.2,3,1.9c0.3,0.6,0.4,1.3,0.4,1.9c2.8,1.4,3.2,4.4,3.2,4.6c0,0.1,0,0.1,0,0.2v6.5c0,0.8-0.2,1.5-0.6,2.3
	c-1.1,1.9-1.5,4.2-1.5,4.2C50.5,36.2,49.9,36.7,49.2,36.7z M40.8,21c0.6,0,1.1,0.1,1.6,0.3l4.1,1.5c1.8,0.7,2.8,2,3.4,3v-3.1
	c-0.1-0.4-0.5-2.2-2.4-2.6c-0.4-0.1-0.7-0.4-0.9-0.7c-0.2-0.4-0.2-0.8,0-1.2c0.1-0.2,0.2-0.6,0-0.9c-0.1-0.2-0.5-0.4-1-0.5h-12
	c-3.6,0-6.6,3-6.6,6.6v2.3c1.5-2.9,4.4-3.4,4.5-3.4c0.1,0,0.1,0,0.2,0h4c0.4,0,0.5,0,0.7-0.1c0.6-0.3,1.9-0.7,2.8-1
	C39.7,21.1,40.3,21,40.8,21z"/>
<path class="st1" d="M38.5,48.6c-0.2,0-0.4,0-0.5,0c-2.3,0.1-4.9-2-5.9-2.9c-0.1-0.1-0.3-0.2-0.4-0.3c0,0,0,0-0.1,0
	c-0.2,0-0.3-0.1-0.5-0.2c-4.5-3.1-4.7-9.7-4.7-10l0-7.9c0-0.1,0-0.2,0-0.3c0.9-4.4,4.9-5,5-5c0.1,0,0.1,0,0.2,0h4
	c0.4,0,0.5,0,0.7-0.1c0.6-0.3,1.9-0.7,2.7-1c0.9-0.4,2.1-0.4,3.2,0l4.2,1.5c3.7,1.4,4,4.8,4.1,4.9c0,0,0,0.1,0,0.1V35
	c-0.6,6-2.9,8.7-4.5,9.8c-0.1,0.1-0.3,0.3-0.4,0.4c-0.2,0.2-0.4,0.3-0.6,0.5c-0.2,0.1-0.4,0.3-0.5,0.4
	C42.1,48.3,39.7,48.6,38.5,48.6z M38.3,45.9c0.1,0,2.2,0.2,4.4-1.7c0.2-0.2,0.5-0.4,0.8-0.7c0.2-0.1,0.4-0.3,0.5-0.4
	c0,0,0,0,0.1-0.1c0.1-0.1,0.2-0.2,0.3-0.2c0.9-0.6,3-2.6,3.5-7.8l0-7.2c-0.1-0.3-0.4-1.8-2.3-2.5l-4.1-1.5c-0.5-0.2-1-0.2-1.4,0
	c-0.9,0.3-2.1,0.7-2.8,1c-0.7,0.2-1.1,0.2-1.6,0.2h-3.9c-0.4,0.1-2.1,0.5-2.6,2.6v7.7c0,0,0.2,5.1,3.3,7.5c0.1,0,0.2,0.1,0.2,0.1
	c0.2,0.1,0.4,0.3,0.6,0.4c0.1,0.1,0.1,0.1,0.2,0.1c0.1,0.1,0.3,0.2,0.4,0.3c1.1,1.1,3.1,2.3,4,2.2C38.1,45.8,38.2,45.8,38.3,45.9z"
	/>
<path class="st1" d="M36.4,56c-0.3,0-0.6-0.1-0.9-0.3c-0.5-0.5-0.6-1.3-0.2-1.9l2.2-2.9c0.5-0.6,1.3-0.7,1.9-0.3
	c0.6,0.5,0.7,1.3,0.3,1.9l-2.1,2.8c0,0.1-0.1,0.1-0.1,0.2l-0.1,0.1C37.1,55.8,36.8,56,36.4,56z"/>
<path class="st1" d="M38.7,53c-0.8,0-1.4-0.6-1.4-1.4c0-0.8,0.6-1.4,1.4-1.4h0c0.8,0,1.4,0.6,1.4,1.4C40,52.4,39.4,53,38.7,53z"/>
<path class="st1" d="M38.7,53c-0.8,0-1.4-0.6-1.4-1.4c0-0.8,0.6-1.4,1.4-1.4h0c0.8,0,1.4,0.6,1.4,1.4C40,52.4,39.4,53,38.7,53z"/>
<path class="st1" d="M43.3,59.4c-0.4,0-0.8-0.2-1.1-0.5l-2.6-3.5l-2.1-2.9c-0.2-0.3-0.3-0.7-0.2-1.1c0.1-0.4,0.3-0.7,0.6-0.9
	l6.3-4.3c0.4-0.2,0.8-0.3,1.2-0.2l3.4,1.2c0.4,0.1,0.7,0.4,0.8,0.8c0.1,0.4,0.1,0.8-0.1,1.2l-5.1,9.4c-0.2,0.4-0.6,0.7-1.1,0.7
	C43.4,59.4,43.4,59.4,43.3,59.4z M40.6,52l2.5,3.5l3.3-6.1l-1.3-0.5L40.6,52z"/>
<path class="st1" d="M34,59.4C33.9,59.4,33.9,59.4,34,59.4c-0.5,0-1-0.3-1.2-0.7l-5.2-9.4c-0.2-0.4-0.2-0.8-0.1-1.2
	c0.1-0.4,0.4-0.7,0.8-0.8l3.4-1.2c0.4-0.2,0.9-0.1,1.2,0.2l6,4.1c0.4,0.1,0.7,0.4,0.9,0.7c0.2,0.5,0.2,1-0.1,1.4l-2.1,2.8
	c0,0.1-0.1,0.1-0.1,0.2l-0.1,0.1l-2.4,3.4C34.8,59.2,34.4,59.4,34,59.4z M30.7,49.4l3.4,6.1l1.2-1.7c0-0.1,0.1-0.1,0.1-0.2l0.1-0.1
	l1.1-1.5L32,48.9L30.7,49.4z"/>
<path class="st1" d="M62,62.2L61.6,57c-0.2-1.4-1.2-2.5-2.6-3.1l-11.1-4c-0.7-0.3-1.1-1.1-0.8-1.8c0.3-0.7,1-1.1,1.8-0.8l11.1,4
	c2.4,0.9,4,2.9,4.3,5.3l0.3,5.2L62,62.2z M12.2,63.7l0.5-7.1c0.3-2.3,2-4.3,4.3-5.2l11.2-4c0.7-0.3,1.5,0.1,1.8,0.8
	c0.3,0.7-0.1,1.5-0.8,1.8l-11.1,4c-1.4,0.5-2.3,1.7-2.5,3l-0.5,7.2L12.2,63.7z"/>
</svg>
