<?xml version="1.0" encoding="utf-8"?>
<!-- Generator: Adobe Illustrator 19.0.1, SVG Export Plug-In . SVG Version: 6.00 Build 0)  -->
<svg version="1.1" id="Слой_1" xmlns="http://www.w3.org/2000/svg" xmlns:xlink="http://www.w3.org/1999/xlink" x="0px" y="0px"
	 viewBox="0 0 36 36" style="enable-background:new 0 0 36 36;" xml:space="preserve">
<style type="text/css">
	.st0{fill:#00A4AC;}
</style>
<path class="st0" d="M15.9,9.9l7.5,7.5l-7.5,7.5l-1.5-1.3l6.1-6.2l-6.1-6.2L15.9,9.9z"/>
<path class="st0" d="M18,34C9.2,34,2,26.8,2,18C2,9.2,9.2,2,18,2c8.8,0,16,7.2,16,16C34,26.8,26.8,34,18,34 M18,36
	c9.9,0,18-8.1,18-18S27.9,0,18,0C8.1,0,0,8.1,0,18C0,27.9,8.1,36,18,36L18,36z"/>
</svg>
