<?xml version="1.0" encoding="utf-8"?>
<!-- Generator: Adobe Illustrator 19.0.1, SVG Export Plug-In . SVG Version: 6.00 Build 0)  -->
<svg version="1.1" id="Слой_1" xmlns="http://www.w3.org/2000/svg" xmlns:xlink="http://www.w3.org/1999/xlink" x="0px" y="0px"
	 viewBox="0 0 18 18" style="enable-background:new 0 0 18 18;" xml:space="preserve">
<style type="text/css">
	.st0{fill:#00FDE8;}
</style>
<path class="st0" d="M3.7,0C2.9-0.1,2,0.4,1.5,0.9c-1,1-1.6,2.6-1.4,3.5C0.8,9.6,7.9,16.9,13.2,18c0.9,0.2,2.6-0.2,3.7-1.1
	c0.6-0.5,1.1-1.3,1.1-2.1c0-1-3.9-3.6-5.1-3.2c-0.6,0.2-0.8,1-1.1,1.4c-0.5,0.8-1.1,0.6-1.7,0.1c-1.7-1.3-3.9-3.5-5.1-5.3
	C4.4,7.1,4.3,6.4,5.1,6.1c0.5-0.2,1.3-0.4,1.6-1C7.2,4,4.7,0,3.7,0z"/>
</svg>
