<?xml version="1.0" encoding="utf-8"?>
<!-- Generator: Adobe Illustrator 19.0.1, SVG Export Plug-In . SVG Version: 6.00 Build 0)  -->
<svg version="1.1" id="Слой_1" xmlns="http://www.w3.org/2000/svg" xmlns:xlink="http://www.w3.org/1999/xlink" x="0px" y="0px"
	 viewBox="0 0 29.7 30" style="enable-background:new 0 0 29.7 30;" xml:space="preserve">
<style type="text/css">
	.st0{fill-rule:evenodd;clip-rule:evenodd;fill:#00FDE8;}
	.st1{fill:#00A4AC;}
</style>
<path class="st0" d="M14.9,0c8.2,0,14.9,6.7,14.9,15c0,8.3-6.7,15-14.9,15S0,23.3,0,15C0,6.7,6.7,0,14.9,0z"/>
<path class="st1" d="M10.2,7C9.4,6.9,8.5,7.4,7.9,7.9c-1,1-1.6,2.6-1.4,3.5c0.7,5.2,7.9,12.5,13.2,13.6c0.9,0.2,2.6-0.2,3.7-1.1
	c0.6-0.5,1.1-1.3,1.1-2.1c0-1-3.9-3.6-5.1-3.2c-0.6,0.2-0.8,1-1.1,1.4c-0.5,0.8-1.1,0.6-1.7,0.1c-1.7-1.3-3.9-3.5-5.1-5.3
	c-0.5-0.6-0.7-1.3,0.2-1.6c0.5-0.2,1.3-0.4,1.6-1C13.7,11,11.2,7,10.2,7z"/>
</svg>
