<?xml version="1.0" encoding="utf-8"?>
<!-- Generator: Adobe Illustrator 19.0.1, SVG Export Plug-In . SVG Version: 6.00 Build 0)  -->
<svg version="1.1" id="Слой_1" xmlns="http://www.w3.org/2000/svg" xmlns:xlink="http://www.w3.org/1999/xlink" x="0px" y="0px"
	 viewBox="0 0 62.9 72" style="enable-background:new 0 0 62.9 72;" xml:space="preserve">
<style type="text/css">
	.st0{opacity:0.67;fill:#FFFFFF;}
	.st1{fill:url(#SVGID_1_);}
	.st2{fill:#FFFFFF;}
</style>
<path class="st0" d="M54.1,71.2l-51.2-30c-3.9-2.3-3.9-8,0-10.3l51.2-30C58-1.5,62.9,1.4,62.9,6v60C62.9,70.6,58,73.5,54.1,71.2z"/>
<linearGradient id="SVGID_1_" gradientUnits="userSpaceOnUse" x1="52.7144" y1="87.3263" x2="14.2502" y2="50.1819" gradientTransform="matrix(-1.346898e-010 1 -1 -1.346898e-010 113.8717 2.0963)">
	<stop  offset="0" style="stop-color:#00A4AC"/>
	<stop  offset="1" style="stop-color:#00FDE8"/>
</linearGradient>
<path class="st1" d="M51.1,63.2L11.4,40c-3-1.8-3-6.2,0-8L51.1,8.7c3-1.8,6.8,0.4,6.8,4v46.5C57.9,62.8,54.1,65,51.1,63.2z"/>
<path class="st2" d="M34.2,25.5c-1-0.1-2.2,0.5-2.9,1.2c-1.3,1.3-2,3.3-1.8,4.5c1,6.6,10.1,16,16.8,17.4c1.1,0.2,3.3-0.3,4.7-1.5
	c0.8-0.7,1.4-1.7,1.4-2.7c0-1.2-5-4.6-6.5-4.1c-0.7,0.2-1,1.2-1.4,1.8c-0.6,1-1.4,0.8-2.2,0.1c-2.2-1.7-4.9-4.5-6.5-6.8
	c-0.6-0.8-0.9-1.6,0.2-2.1c0.6-0.3,1.7-0.5,2-1.2C38.7,30.7,35.5,25.5,34.2,25.5z"/>
</svg>
