<?xml version="1.0" encoding="utf-8"?>
<!-- Generator: Adobe Illustrator 19.0.1, SVG Export Plug-In . SVG Version: 6.00 Build 0)  -->
<svg version="1.1" id="Слой_1" xmlns="http://www.w3.org/2000/svg" xmlns:xlink="http://www.w3.org/1999/xlink" x="0px" y="0px"
	 viewBox="0 0 19.5 17.1" style="enable-background:new 0 0 19.5 17.1;" xml:space="preserve">
<style type="text/css">
	.st0{fill:#00FDE8;}
</style>
<path class="st0" d="M18.3,0.1L0.4,7.3c-0.6,0.2-0.5,1.1,0.1,1.3L5,10l1.7,5.6c0.2,0.6,0.9,0.8,1.3,0.3l2.3-2.5L15,17
	c0.6,0.4,1.4,0.1,1.5-0.6l3.1-15.2C19.7,0.4,19-0.2,18.3,0.1z M16,3.4l-8.3,7.6c-0.1,0.1-0.1,0.2-0.1,0.3l-0.3,3
	c0,0.1-0.1,0.1-0.2,0L5.8,9.9C5.7,9.7,5.8,9.5,6,9.4l9.8-6.3C16,2.9,16.2,3.3,16,3.4z"/>
</svg>
