<?xml version="1.0" encoding="utf-8"?>
<!-- Generator: Adobe Illustrator 19.0.1, SVG Export Plug-In . SVG Version: 6.00 Build 0)  -->
<svg version="1.1" id="Слой_1" xmlns="http://www.w3.org/2000/svg" xmlns:xlink="http://www.w3.org/1999/xlink" x="0px" y="0px"
	 viewBox="0 0 29.7 30" style="enable-background:new 0 0 29.7 30;" xml:space="preserve">
<style type="text/css">
	.st0{fill-rule:evenodd;clip-rule:evenodd;fill:#00FDE8;}
	.st1{fill:#00A4AC;}
</style>
<path class="st0" d="M14.9,0c8.2,0,14.9,6.7,14.9,15c0,8.3-6.7,15-14.9,15S0,23.3,0,15C0,6.7,6.7,0,14.9,0z"/>
<path class="st1" d="M22.5,6.9L4.6,14.2c-0.6,0.2-0.5,1.1,0.1,1.3l4.5,1.4l1.7,5.6c0.2,0.6,0.9,0.8,1.3,0.3l2.3-2.5l4.6,3.5
	c0.6,0.4,1.4,0.1,1.5-0.6L23.7,8C23.8,7.3,23.1,6.6,22.5,6.9z M20.2,10.3l-8.3,7.6c-0.1,0.1-0.1,0.2-0.1,0.3l-0.3,3
	c0,0.1-0.1,0.1-0.2,0L10,16.8c-0.1-0.2,0-0.4,0.2-0.5L20,9.9C20.2,9.8,20.4,10.1,20.2,10.3z"/>
</svg>
