<?xml version="1.0" encoding="utf-8"?>
<!-- Generator: Adobe Illustrator 19.0.1, SVG Export Plug-In . SVG Version: 6.00 Build 0)  -->
<svg version="1.1" id="Слой_1" xmlns="http://www.w3.org/2000/svg" xmlns:xlink="http://www.w3.org/1999/xlink" x="0px" y="0px"
	 viewBox="0 0 62.9 72" style="enable-background:new 0 0 62.9 72;" xml:space="preserve">
<style type="text/css">
	.st0{opacity:0.67;fill:#FFFFFF;}
	.st1{fill:url(#SVGID_1_);}
	.st2{fill:#FFFFFF;}
</style>
<path class="st0" d="M54.1,71.2l-51.2-30c-3.9-2.3-3.9-8,0-10.3l51.2-30C58-1.5,62.9,1.4,62.9,6v60C62.9,70.6,58,73.5,54.1,71.2z"/>
<linearGradient id="SVGID_1_" gradientUnits="userSpaceOnUse" x1="52.7144" y1="87.3263" x2="14.2502" y2="50.1819" gradientTransform="matrix(-1.346898e-010 1 -1 -1.346898e-010 113.8717 2.0963)">
	<stop  offset="0" style="stop-color:#00A4AC"/>
	<stop  offset="1" style="stop-color:#00FDE8"/>
</linearGradient>
<path class="st1" d="M51.1,63.2L11.4,40c-3-1.8-3-6.2,0-8L51.1,8.7c3-1.8,6.8,0.4,6.8,4v46.5C57.9,62.8,54.1,65,51.1,63.2z"/>
<path class="st2" d="M48.4,25.1l-22.9,9.3c-0.7,0.3-0.7,1.4,0.1,1.6l5.8,1.8l2.2,7.2c0.2,0.8,1.1,1,1.7,0.4l3-3.2l5.9,4.5
	c0.7,0.6,1.7,0.1,1.9-0.8L50,26.5C50.2,25.5,49.3,24.7,48.4,25.1z M45.5,29.4l-10.6,9.8c-0.1,0.1-0.2,0.2-0.2,0.4l-0.4,3.8
	c0,0.1-0.2,0.1-0.2,0l-1.7-5.7c-0.1-0.3,0-0.5,0.2-0.7L45.2,29C45.5,28.8,45.8,29.2,45.5,29.4z"/>
</svg>
